<?xml version="1.0" encoding="UTF-8"?>
<svg width="1895px" height="973px" viewBox="0 0 1895 973" version="1.1" xmlns="http://www.w3.org/2000/svg" xmlns:xlink="http://www.w3.org/1999/xlink">
    <!-- Generator: Sketch 45 (43475) - http://www.bohemiancoding.com/sketch -->
    <title>Artboard@3x</title>
    <desc>Created with Sketch.</desc>
    <defs>
        <path d="M1074.22846,312.798986 C1076.41361,305.273573 1077.57571,297.384715 1077.57571,289.25554 C1077.57571,237.190013 1029.9049,194.982565 971.099968,194.982565 C957.938577,194.982565 945.334925,197.096858 933.698645,200.96276 C913.436176,155.607427 867.931864,124 815.045241,124 C760.348328,124 713.547762,157.808283 694.400558,205.667835 C681.30637,198.841573 666.419106,194.982565 650.630523,194.982565 C598.264517,194.982565 555.813482,237.4336 555.813482,289.799605 C555.813482,297.731217 556.787377,305.435363 558.62211,312.798986 L536.898003,312.798986 L536.898003,312.798986 C498.846687,312.798986 468,343.645673 468,381.696989 C468,419.748306 498.846687,450.594992 536.898003,450.594992 L1093.41746,450.594992 C1131.46877,450.594992 1162.31546,419.748306 1162.31546,381.696989 C1162.31546,343.645673 1131.46877,312.798986 1093.41746,312.798986 L1093.41746,312.798986 L1074.22846,312.798986 Z" id="path-1"></path>
        <filter x="-1.2%" y="-2.6%" width="103.0%" height="106.4%" filterUnits="objectBoundingBox" id="filter-2">
            <feMorphology radius="3.5" operator="dilate" in="SourceAlpha" result="shadowSpreadOuter1"></feMorphology>
            <feOffset dx="2" dy="2" in="shadowSpreadOuter1" result="shadowOffsetOuter1"></feOffset>
            <feGaussianBlur stdDeviation="2" in="shadowOffsetOuter1" result="shadowBlurOuter1"></feGaussianBlur>
            <feComposite in="shadowBlurOuter1" in2="SourceAlpha" operator="out" result="shadowBlurOuter1"></feComposite>
            <feColorMatrix values="0 0 0 0 0   0 0 0 0 0   0 0 0 0 0  0 0 0 0.5 0" type="matrix" in="shadowBlurOuter1"></feColorMatrix>
        </filter>
        <path d="M1651.52609,212.921982 C1652.55527,209.377605 1653.1026,205.662051 1653.1026,201.83331 C1653.1026,177.311093 1630.65024,157.431908 1602.95385,157.431908 C1596.755,157.431908 1590.81883,158.427714 1585.33829,160.248506 C1575.79492,138.886706 1554.36295,124 1529.45401,124 C1503.69244,124 1481.64995,139.923282 1472.63186,162.464537 C1466.46466,159.249453 1459.45294,157.431908 1452.01671,157.431908 C1427.35297,157.431908 1407.35906,177.425819 1407.35906,202.089559 C1407.35906,205.825249 1407.81775,209.453807 1408.68189,212.921982 L1398.45011,212.921982 L1398.45011,212.921982 C1380.52841,212.921982 1366,227.450389 1366,245.372087 L1366,245.372087 L1366,245.372087 C1366,263.293785 1380.52841,277.822192 1398.45011,277.822192 L1660.56387,277.822192 C1678.48557,277.822192 1693.01397,263.293785 1693.01397,245.372087 C1693.01397,227.450389 1678.48557,212.921982 1660.56387,212.921982 L1660.56387,212.921982 L1651.52609,212.921982 Z" id="path-3"></path>
        <filter x="-3.8%" y="-5.5%" width="106.4%" height="113.7%" filterUnits="objectBoundingBox" id="filter-4">
            <feMorphology radius="3.5" operator="dilate" in="SourceAlpha" result="shadowSpreadOuter1"></feMorphology>
            <feOffset dx="-2" dy="2" in="shadowSpreadOuter1" result="shadowOffsetOuter1"></feOffset>
            <feGaussianBlur stdDeviation="2" in="shadowOffsetOuter1" result="shadowBlurOuter1"></feGaussianBlur>
            <feComposite in="shadowBlurOuter1" in2="SourceAlpha" operator="out" result="shadowBlurOuter1"></feComposite>
            <feColorMatrix values="0 0 0 0 0   0 0 0 0 0   0 0 0 0 0  0 0 0 0.5 0" type="matrix" in="shadowBlurOuter1"></feColorMatrix>
        </filter>
    </defs>
    <g id="Page-1" stroke="none" stroke-width="1" fill="none" fill-rule="evenodd">
        <g id="Artboard">
            <rect id="Rectangle" fill="#DEF9FF" x="0" y="0" width="1895" height="973"></rect>
            <path d="M1427.25284,221.254704 C1428.9803,215.305502 1429.899,209.068979 1429.899,202.642474 C1429.899,161.482164 1392.21292,128.115141 1345.72479,128.115141 C1335.32007,128.115141 1325.35628,129.786592 1316.15724,132.842773 C1300.13878,96.9871951 1264.16543,72 1222.356,72 C1179.11545,72 1142.11735,98.7270778 1126.98056,136.562361 C1116.62897,131.165873 1104.85987,128.115141 1092.37824,128.115141 C1050.98038,128.115141 1017.42079,161.674731 1017.42079,203.072584 C1017.42079,209.342906 1018.1907,215.433405 1019.64115,221.254704 L1002.46719,221.254704 C972.385793,221.254704 948,245.640497 948,275.721898 C948,305.803299 972.385793,330.189092 1002.46719,330.189092 L1442.42266,330.189092 C1472.50406,330.189092 1496.88986,305.803299 1496.88986,275.721898 L1496.88986,275.721898 C1496.88986,245.640497 1472.50406,221.254704 1442.42266,221.254704 L1442.42266,221.254704 L1427.25284,221.254704 Z" id="Combined-Shape" stroke="#71BFCC" stroke-width="7"></path>
            <g id="Combined-Shape">
                <use fill="black" fill-opacity="1" filter="url(#filter-2)" xlink:href="#path-1"></use>
                <use stroke="#71BFCC" stroke-width="7" fill="#71BFCC" fill-rule="evenodd" xlink:href="#path-1"></use>
            </g>
            <path d="M259.228463,149.798986 C261.413606,142.273573 262.57571,134.384715 262.57571,126.25554 C262.57571,74.1900132 214.904897,31.9825646 156.099968,31.9825646 C142.938577,31.9825646 130.334925,34.0968581 118.698645,37.9627598 C98.436176,-7.39257333 52.9318636,-39 0.0452412334,-39 C-54.6516725,-39 -101.452238,-5.19171668 -120.599442,42.6678355 C-133.69363,35.8415731 -148.580894,31.9825646 -164.369477,31.9825646 C-216.735483,31.9825646 -259.186518,74.4335996 -259.186518,126.799605 C-259.186518,134.731217 -258.212623,142.435363 -256.37789,149.798986 L-278.101997,149.798986 L-278.101997,149.798986 C-316.153313,149.798986 -347,180.645673 -347,218.696989 C-347,256.748306 -316.153313,287.594992 -278.101997,287.594992 L278.417456,287.594992 C316.468773,287.594992 347.315459,256.748306 347.315459,218.696989 C347.315459,180.645673 316.468773,149.798986 278.417456,149.798986 L278.417456,149.798986 L259.228463,149.798986 Z" id="Combined-Shape" stroke="#71BFCC" stroke-width="7"></path>
            <g id="Combined-Shape">
                <use fill="black" fill-opacity="1" filter="url(#filter-4)" xlink:href="#path-3"></use>
                <use stroke="#71BFCC" stroke-width="7" fill="#71BFCC" fill-rule="evenodd" xlink:href="#path-3"></use>
            </g>
        </g>
    </g>
</svg>